<mxfile host="app.diagrams.net" modified="2022-02-13T13:47:09.337Z" agent="5.0 (X11; Linux x86_64) AppleWebKit/537.36 (KHTML, like Gecko) Chrome/96.0.4664.113 Safari/537.36" etag="cvRHNB6W6qJN71Lf5TnI" version="16.5.6" type="github" pages="3">
  <diagram id="IFCdjBWO_WFEhkjRzHkC" name="Introduction">
    <mxGraphModel dx="2462" dy="2442" grid="1" gridSize="10" guides="1" tooltips="1" connect="1" arrows="1" fold="1" page="1" pageScale="1" pageWidth="1700" pageHeight="1100" math="0" shadow="0">
      <root>
        <mxCell id="0" />
        <mxCell id="1" parent="0" />
        <mxCell id="yzUq15qpT1XDDvLRFZ2j-1" value="" style="shape=image;verticalLabelPosition=bottom;labelBackgroundColor=default;verticalAlign=top;aspect=fixed;imageAspect=0;image=https://tuanntblog.com/wp-content/uploads/2018/11/nodejs-new-pantone-black.png;fontFamily=Comfortaa;fontSource=https%3A%2F%2Ffonts.googleapis.com%2Fcss%3Ffamily%3DComfortaa;" vertex="1" parent="1">
          <mxGeometry x="510" y="-240" width="309.72" height="190" as="geometry" />
        </mxCell>
        <mxCell id="yzUq15qpT1XDDvLRFZ2j-4" style="edgeStyle=orthogonalEdgeStyle;rounded=0;orthogonalLoop=1;jettySize=auto;html=1;fontFamily=Comfortaa;fontSource=https%3A%2F%2Ffonts.googleapis.com%2Fcss%3Ffamily%3DComfortaa;" edge="1" parent="1" source="yzUq15qpT1XDDvLRFZ2j-2" target="yzUq15qpT1XDDvLRFZ2j-3">
          <mxGeometry relative="1" as="geometry" />
        </mxCell>
        <mxCell id="yzUq15qpT1XDDvLRFZ2j-6" style="edgeStyle=orthogonalEdgeStyle;rounded=0;orthogonalLoop=1;jettySize=auto;html=1;fontFamily=Comfortaa;fontSource=https%3A%2F%2Ffonts.googleapis.com%2Fcss%3Ffamily%3DComfortaa;" edge="1" parent="1" source="yzUq15qpT1XDDvLRFZ2j-2" target="yzUq15qpT1XDDvLRFZ2j-5">
          <mxGeometry relative="1" as="geometry">
            <mxPoint x="530.0285714285715" y="380" as="targetPoint" />
            <Array as="points">
              <mxPoint x="520" y="330" />
            </Array>
          </mxGeometry>
        </mxCell>
        <mxCell id="yzUq15qpT1XDDvLRFZ2j-2" value="What is NodeJS" style="rounded=0;whiteSpace=wrap;html=1;fontFamily=Comfortaa;fontSource=https%3A%2F%2Ffonts.googleapis.com%2Fcss%3Ffamily%3DComfortaa;" vertex="1" parent="1">
          <mxGeometry x="340" y="300" width="120" height="60" as="geometry" />
        </mxCell>
        <mxCell id="yzUq15qpT1XDDvLRFZ2j-3" value="Run JavaScript in the Server" style="rounded=0;whiteSpace=wrap;html=1;fontFamily=Comfortaa;fontSource=https%3A%2F%2Ffonts.googleapis.com%2Fcss%3Ffamily%3DComfortaa;" vertex="1" parent="1">
          <mxGeometry x="190" y="380" width="120" height="60" as="geometry" />
        </mxCell>
        <mxCell id="yzUq15qpT1XDDvLRFZ2j-5" value="NodeJS using V8 that take JS code compiles it to machine code" style="rounded=0;whiteSpace=wrap;html=1;fontFamily=Comfortaa;fontSource=https%3A%2F%2Ffonts.googleapis.com%2Fcss%3Ffamily%3DComfortaa;" vertex="1" parent="1">
          <mxGeometry x="460" y="380" width="120" height="60" as="geometry" />
        </mxCell>
        <mxCell id="yzUq15qpT1XDDvLRFZ2j-7" value="" style="rounded=0;whiteSpace=wrap;html=1;fontFamily=Comfortaa;fontSource=https%3A%2F%2Ffonts.googleapis.com%2Fcss%3Ffamily%3DComfortaa;" vertex="1" parent="1">
          <mxGeometry x="680" y="-30" width="680" height="540" as="geometry" />
        </mxCell>
        <mxCell id="yzUq15qpT1XDDvLRFZ2j-12" style="edgeStyle=orthogonalEdgeStyle;rounded=0;orthogonalLoop=1;jettySize=auto;html=1;entryX=0;entryY=0.5;entryDx=0;entryDy=0;fontFamily=Comfortaa;fontSource=https%3A%2F%2Ffonts.googleapis.com%2Fcss%3Ffamily%3DComfortaa;" edge="1" parent="1" source="yzUq15qpT1XDDvLRFZ2j-8" target="yzUq15qpT1XDDvLRFZ2j-11">
          <mxGeometry relative="1" as="geometry" />
        </mxCell>
        <mxCell id="yzUq15qpT1XDDvLRFZ2j-8" value="User" style="shape=umlActor;verticalLabelPosition=bottom;verticalAlign=top;html=1;outlineConnect=0;fontFamily=Comfortaa;fontSource=https%3A%2F%2Ffonts.googleapis.com%2Fcss%3Ffamily%3DComfortaa;" vertex="1" parent="1">
          <mxGeometry x="750" y="410" width="30" height="60" as="geometry" />
        </mxCell>
        <mxCell id="yzUq15qpT1XDDvLRFZ2j-18" style="edgeStyle=orthogonalEdgeStyle;rounded=0;orthogonalLoop=1;jettySize=auto;html=1;entryX=0.5;entryY=1;entryDx=0;entryDy=0;fontFamily=Comfortaa;fontSource=https%3A%2F%2Ffonts.googleapis.com%2Fcss%3Ffamily%3DComfortaa;" edge="1" parent="1" source="yzUq15qpT1XDDvLRFZ2j-11" target="yzUq15qpT1XDDvLRFZ2j-13">
          <mxGeometry relative="1" as="geometry" />
        </mxCell>
        <mxCell id="yzUq15qpT1XDDvLRFZ2j-19" value="Request" style="edgeLabel;html=1;align=center;verticalAlign=middle;resizable=0;points=[];fontFamily=Comfortaa;" vertex="1" connectable="0" parent="yzUq15qpT1XDDvLRFZ2j-18">
          <mxGeometry x="-0.165" y="1" relative="1" as="geometry">
            <mxPoint as="offset" />
          </mxGeometry>
        </mxCell>
        <mxCell id="yzUq15qpT1XDDvLRFZ2j-11" value="Client (Browser)" style="rounded=0;whiteSpace=wrap;html=1;fontFamily=Comfortaa;fontSource=https%3A%2F%2Ffonts.googleapis.com%2Fcss%3Ffamily%3DComfortaa;" vertex="1" parent="1">
          <mxGeometry x="890" y="410" width="120" height="60" as="geometry" />
        </mxCell>
        <mxCell id="yzUq15qpT1XDDvLRFZ2j-20" style="edgeStyle=orthogonalEdgeStyle;rounded=0;orthogonalLoop=1;jettySize=auto;html=1;entryX=1;entryY=0.5;entryDx=0;entryDy=0;fontFamily=Comfortaa;fontSource=https%3A%2F%2Ffonts.googleapis.com%2Fcss%3Ffamily%3DComfortaa;" edge="1" parent="1" source="yzUq15qpT1XDDvLRFZ2j-13" target="yzUq15qpT1XDDvLRFZ2j-11">
          <mxGeometry relative="1" as="geometry">
            <Array as="points">
              <mxPoint x="1110" y="310" />
              <mxPoint x="1110" y="440" />
            </Array>
          </mxGeometry>
        </mxCell>
        <mxCell id="yzUq15qpT1XDDvLRFZ2j-21" value="Response &#39;HTML Page&#39;" style="edgeLabel;html=1;align=center;verticalAlign=middle;resizable=0;points=[];fontFamily=Comfortaa;" vertex="1" connectable="0" parent="yzUq15qpT1XDDvLRFZ2j-20">
          <mxGeometry x="-0.0803" y="1" relative="1" as="geometry">
            <mxPoint as="offset" />
          </mxGeometry>
        </mxCell>
        <mxCell id="yzUq15qpT1XDDvLRFZ2j-24" style="edgeStyle=orthogonalEdgeStyle;rounded=0;orthogonalLoop=1;jettySize=auto;html=1;fontFamily=Comfortaa;fontSource=https%3A%2F%2Ffonts.googleapis.com%2Fcss%3Ffamily%3DComfortaa;fontSize=25;" edge="1" parent="1" source="yzUq15qpT1XDDvLRFZ2j-13" target="yzUq15qpT1XDDvLRFZ2j-23">
          <mxGeometry relative="1" as="geometry" />
        </mxCell>
        <mxCell id="yzUq15qpT1XDDvLRFZ2j-28" style="edgeStyle=orthogonalEdgeStyle;rounded=0;orthogonalLoop=1;jettySize=auto;html=1;entryX=0.5;entryY=1;entryDx=0;entryDy=0;fontFamily=Comfortaa;fontSource=https%3A%2F%2Ffonts.googleapis.com%2Fcss%3Ffamily%3DComfortaa;fontSize=16;" edge="1" parent="1" source="yzUq15qpT1XDDvLRFZ2j-13" target="yzUq15qpT1XDDvLRFZ2j-26">
          <mxGeometry relative="1" as="geometry" />
        </mxCell>
        <mxCell id="yzUq15qpT1XDDvLRFZ2j-31" style="edgeStyle=orthogonalEdgeStyle;rounded=0;orthogonalLoop=1;jettySize=auto;html=1;entryX=0.5;entryY=1;entryDx=0;entryDy=0;entryPerimeter=0;fontFamily=Comfortaa;fontSource=https%3A%2F%2Ffonts.googleapis.com%2Fcss%3Ffamily%3DComfortaa;fontSize=16;" edge="1" parent="1" source="yzUq15qpT1XDDvLRFZ2j-13" target="yzUq15qpT1XDDvLRFZ2j-29">
          <mxGeometry relative="1" as="geometry" />
        </mxCell>
        <mxCell id="yzUq15qpT1XDDvLRFZ2j-33" style="edgeStyle=orthogonalEdgeStyle;rounded=0;orthogonalLoop=1;jettySize=auto;html=1;entryX=0.5;entryY=1;entryDx=0;entryDy=0;fontFamily=Comfortaa;fontSource=https%3A%2F%2Ffonts.googleapis.com%2Fcss%3Ffamily%3DComfortaa;fontSize=16;" edge="1" parent="1" source="yzUq15qpT1XDDvLRFZ2j-13" target="yzUq15qpT1XDDvLRFZ2j-32">
          <mxGeometry relative="1" as="geometry" />
        </mxCell>
        <mxCell id="yzUq15qpT1XDDvLRFZ2j-13" value="Server" style="rounded=0;whiteSpace=wrap;html=1;fontFamily=Comfortaa;fontSource=https%3A%2F%2Ffonts.googleapis.com%2Fcss%3Ffamily%3DComfortaa;" vertex="1" parent="1">
          <mxGeometry x="890" y="280" width="120" height="60" as="geometry" />
        </mxCell>
        <mxCell id="yzUq15qpT1XDDvLRFZ2j-23" value="Database" style="shape=cylinder3;whiteSpace=wrap;html=1;boundedLbl=1;backgroundOutline=1;size=15;fontFamily=Comfortaa;fontSource=https%3A%2F%2Ffonts.googleapis.com%2Fcss%3Ffamily%3DComfortaa;fontSize=16;" vertex="1" parent="1">
          <mxGeometry x="875" y="40" width="150" height="90" as="geometry" />
        </mxCell>
        <mxCell id="yzUq15qpT1XDDvLRFZ2j-26" value="Authenticate" style="rounded=0;whiteSpace=wrap;html=1;fontFamily=Comfortaa;fontSource=https%3A%2F%2Ffonts.googleapis.com%2Fcss%3Ffamily%3DComfortaa;fontSize=16;" vertex="1" parent="1">
          <mxGeometry x="1050" width="120" height="40" as="geometry" />
        </mxCell>
        <mxCell id="yzUq15qpT1XDDvLRFZ2j-29" value="Input Validation" style="shape=note;whiteSpace=wrap;html=1;backgroundOutline=1;darkOpacity=0.05;fontFamily=Comfortaa;fontSource=https%3A%2F%2Ffonts.googleapis.com%2Fcss%3Ffamily%3DComfortaa;fontSize=16;" vertex="1" parent="1">
          <mxGeometry x="1140" y="50" width="100" height="110" as="geometry" />
        </mxCell>
        <mxCell id="yzUq15qpT1XDDvLRFZ2j-32" value="Business Logic" style="rounded=0;whiteSpace=wrap;html=1;fontFamily=Comfortaa;fontSource=https%3A%2F%2Ffonts.googleapis.com%2Fcss%3Ffamily%3DComfortaa;fontSize=16;" vertex="1" parent="1">
          <mxGeometry x="1210" y="5" width="140" height="30" as="geometry" />
        </mxCell>
        <mxCell id="yzUq15qpT1XDDvLRFZ2j-36" style="edgeStyle=orthogonalEdgeStyle;rounded=0;orthogonalLoop=1;jettySize=auto;html=1;fontFamily=Comfortaa;fontSource=https%3A%2F%2Ffonts.googleapis.com%2Fcss%3Ffamily%3DComfortaa;fontSize=16;entryX=0.5;entryY=0;entryDx=0;entryDy=0;" edge="1" parent="1" source="yzUq15qpT1XDDvLRFZ2j-34" target="yzUq15qpT1XDDvLRFZ2j-43">
          <mxGeometry relative="1" as="geometry">
            <mxPoint x="420" y="680" as="targetPoint" />
            <Array as="points">
              <mxPoint x="340" y="620" />
            </Array>
          </mxGeometry>
        </mxCell>
        <mxCell id="yzUq15qpT1XDDvLRFZ2j-38" style="edgeStyle=orthogonalEdgeStyle;rounded=0;orthogonalLoop=1;jettySize=auto;html=1;entryX=0.5;entryY=0;entryDx=0;entryDy=0;fontFamily=Comfortaa;fontSource=https%3A%2F%2Ffonts.googleapis.com%2Fcss%3Ffamily%3DComfortaa;fontSize=16;" edge="1" parent="1" source="yzUq15qpT1XDDvLRFZ2j-34" target="yzUq15qpT1XDDvLRFZ2j-39">
          <mxGeometry relative="1" as="geometry">
            <mxPoint x="840" y="680" as="targetPoint" />
          </mxGeometry>
        </mxCell>
        <mxCell id="yzUq15qpT1XDDvLRFZ2j-48" style="edgeStyle=orthogonalEdgeStyle;rounded=0;orthogonalLoop=1;jettySize=auto;html=1;entryX=0.5;entryY=0;entryDx=0;entryDy=0;fontFamily=Comfortaa;fontSource=https%3A%2F%2Ffonts.googleapis.com%2Fcss%3Ffamily%3DComfortaa;fontSize=16;" edge="1" parent="1" source="yzUq15qpT1XDDvLRFZ2j-34" target="yzUq15qpT1XDDvLRFZ2j-47">
          <mxGeometry relative="1" as="geometry" />
        </mxCell>
        <mxCell id="yzUq15qpT1XDDvLRFZ2j-34" value="Role of NodeJS" style="rounded=0;whiteSpace=wrap;html=1;fontFamily=Comfortaa;fontSource=https%3A%2F%2Ffonts.googleapis.com%2Fcss%3Ffamily%3DComfortaa;fontSize=16;" vertex="1" parent="1">
          <mxGeometry x="580" y="590" width="120" height="60" as="geometry" />
        </mxCell>
        <mxCell id="yzUq15qpT1XDDvLRFZ2j-39" value="Business Logic" style="swimlane;fontStyle=0;childLayout=stackLayout;horizontal=1;startSize=30;horizontalStack=0;resizeParent=1;resizeParentMax=0;resizeLast=0;collapsible=1;marginBottom=0;fontFamily=Comfortaa;fontSource=https%3A%2F%2Ffonts.googleapis.com%2Fcss%3Ffamily%3DComfortaa;fontSize=16;" vertex="1" parent="1">
          <mxGeometry x="430" y="880" width="250" height="120" as="geometry" />
        </mxCell>
        <mxCell id="yzUq15qpT1XDDvLRFZ2j-40" value="Handle Request" style="text;strokeColor=none;fillColor=none;align=left;verticalAlign=middle;spacingLeft=4;spacingRight=4;overflow=hidden;points=[[0,0.5],[1,0.5]];portConstraint=eastwest;rotatable=0;fontFamily=Comfortaa;fontSource=https%3A%2F%2Ffonts.googleapis.com%2Fcss%3Ffamily%3DComfortaa;fontSize=16;" vertex="1" parent="yzUq15qpT1XDDvLRFZ2j-39">
          <mxGeometry y="30" width="250" height="30" as="geometry" />
        </mxCell>
        <mxCell id="yzUq15qpT1XDDvLRFZ2j-41" value="Validate Input" style="text;strokeColor=none;fillColor=none;align=left;verticalAlign=middle;spacingLeft=4;spacingRight=4;overflow=hidden;points=[[0,0.5],[1,0.5]];portConstraint=eastwest;rotatable=0;fontFamily=Comfortaa;fontSource=https%3A%2F%2Ffonts.googleapis.com%2Fcss%3Ffamily%3DComfortaa;fontSize=16;" vertex="1" parent="yzUq15qpT1XDDvLRFZ2j-39">
          <mxGeometry y="60" width="250" height="30" as="geometry" />
        </mxCell>
        <mxCell id="yzUq15qpT1XDDvLRFZ2j-42" value="Connect to Database" style="text;strokeColor=none;fillColor=none;align=left;verticalAlign=middle;spacingLeft=4;spacingRight=4;overflow=hidden;points=[[0,0.5],[1,0.5]];portConstraint=eastwest;rotatable=0;fontFamily=Comfortaa;fontSource=https%3A%2F%2Ffonts.googleapis.com%2Fcss%3Ffamily%3DComfortaa;fontSize=16;" vertex="1" parent="yzUq15qpT1XDDvLRFZ2j-39">
          <mxGeometry y="90" width="250" height="30" as="geometry" />
        </mxCell>
        <mxCell id="yzUq15qpT1XDDvLRFZ2j-43" value="Run Server" style="swimlane;fontStyle=0;childLayout=stackLayout;horizontal=1;startSize=30;horizontalStack=0;resizeParent=1;resizeParentMax=0;resizeLast=0;collapsible=1;marginBottom=0;fontFamily=Comfortaa;fontSource=https%3A%2F%2Ffonts.googleapis.com%2Fcss%3Ffamily%3DComfortaa;fontSize=16;" vertex="1" parent="1">
          <mxGeometry x="210" y="660" width="260" height="90" as="geometry" />
        </mxCell>
        <mxCell id="yzUq15qpT1XDDvLRFZ2j-44" value="Create Server" style="text;strokeColor=none;fillColor=none;align=left;verticalAlign=middle;spacingLeft=4;spacingRight=4;overflow=hidden;points=[[0,0.5],[1,0.5]];portConstraint=eastwest;rotatable=0;fontFamily=Comfortaa;fontSource=https%3A%2F%2Ffonts.googleapis.com%2Fcss%3Ffamily%3DComfortaa;fontSize=16;" vertex="1" parent="yzUq15qpT1XDDvLRFZ2j-43">
          <mxGeometry y="30" width="260" height="30" as="geometry" />
        </mxCell>
        <mxCell id="yzUq15qpT1XDDvLRFZ2j-45" value="Listen to incoming Request" style="text;strokeColor=none;fillColor=none;align=left;verticalAlign=middle;spacingLeft=4;spacingRight=4;overflow=hidden;points=[[0,0.5],[1,0.5]];portConstraint=eastwest;rotatable=0;fontFamily=Comfortaa;fontSource=https%3A%2F%2Ffonts.googleapis.com%2Fcss%3Ffamily%3DComfortaa;fontSize=16;" vertex="1" parent="yzUq15qpT1XDDvLRFZ2j-43">
          <mxGeometry y="60" width="260" height="30" as="geometry" />
        </mxCell>
        <mxCell id="yzUq15qpT1XDDvLRFZ2j-50" style="edgeStyle=orthogonalEdgeStyle;rounded=0;orthogonalLoop=1;jettySize=auto;html=1;entryX=0.5;entryY=0;entryDx=0;entryDy=0;fontFamily=Comfortaa;fontSource=https%3A%2F%2Ffonts.googleapis.com%2Fcss%3Ffamily%3DComfortaa;fontSize=16;" edge="1" parent="1" source="yzUq15qpT1XDDvLRFZ2j-47" target="yzUq15qpT1XDDvLRFZ2j-49">
          <mxGeometry relative="1" as="geometry" />
        </mxCell>
        <mxCell id="yzUq15qpT1XDDvLRFZ2j-47" value="Responses" style="rounded=0;whiteSpace=wrap;html=1;fontFamily=Comfortaa;fontSource=https%3A%2F%2Ffonts.googleapis.com%2Fcss%3Ffamily%3DComfortaa;fontSize=16;" vertex="1" parent="1">
          <mxGeometry x="770" y="680" width="120" height="60" as="geometry" />
        </mxCell>
        <mxCell id="yzUq15qpT1XDDvLRFZ2j-49" value="HTML, JSON" style="rounded=0;whiteSpace=wrap;html=1;fontFamily=Comfortaa;fontSource=https%3A%2F%2Ffonts.googleapis.com%2Fcss%3Ffamily%3DComfortaa;fontSize=16;" vertex="1" parent="1">
          <mxGeometry x="770" y="810" width="120" height="60" as="geometry" />
        </mxCell>
        <mxCell id="yzUq15qpT1XDDvLRFZ2j-53" style="edgeStyle=orthogonalEdgeStyle;rounded=0;orthogonalLoop=1;jettySize=auto;html=1;fontFamily=Comfortaa;fontSource=https%3A%2F%2Ffonts.googleapis.com%2Fcss%3Ffamily%3DComfortaa;fontSize=16;" edge="1" parent="1" source="yzUq15qpT1XDDvLRFZ2j-51" target="yzUq15qpT1XDDvLRFZ2j-52">
          <mxGeometry relative="1" as="geometry" />
        </mxCell>
        <mxCell id="yzUq15qpT1XDDvLRFZ2j-55" style="edgeStyle=orthogonalEdgeStyle;rounded=0;orthogonalLoop=1;jettySize=auto;html=1;entryX=0.5;entryY=0;entryDx=0;entryDy=0;fontFamily=Comfortaa;fontSource=https%3A%2F%2Ffonts.googleapis.com%2Fcss%3Ffamily%3DComfortaa;fontSize=16;" edge="1" parent="1" source="yzUq15qpT1XDDvLRFZ2j-51" target="yzUq15qpT1XDDvLRFZ2j-54">
          <mxGeometry relative="1" as="geometry" />
        </mxCell>
        <mxCell id="yzUq15qpT1XDDvLRFZ2j-51" value="Run NodeJS" style="rounded=0;whiteSpace=wrap;html=1;fontFamily=Comfortaa;fontSource=https%3A%2F%2Ffonts.googleapis.com%2Fcss%3Ffamily%3DComfortaa;fontSize=16;" vertex="1" parent="1">
          <mxGeometry x="1180" y="700" width="120" height="60" as="geometry" />
        </mxCell>
        <mxCell id="yzUq15qpT1XDDvLRFZ2j-52" value="REPL" style="rounded=0;whiteSpace=wrap;html=1;fontFamily=Comfortaa;fontSource=https%3A%2F%2Ffonts.googleapis.com%2Fcss%3Ffamily%3DComfortaa;fontSize=16;" vertex="1" parent="1">
          <mxGeometry x="1040" y="810" width="120" height="60" as="geometry" />
        </mxCell>
        <mxCell id="yzUq15qpT1XDDvLRFZ2j-54" value="Executes Files" style="rounded=0;whiteSpace=wrap;html=1;fontFamily=Comfortaa;fontSource=https%3A%2F%2Ffonts.googleapis.com%2Fcss%3Ffamily%3DComfortaa;fontSize=16;" vertex="1" parent="1">
          <mxGeometry x="1310" y="810" width="120" height="60" as="geometry" />
        </mxCell>
      </root>
    </mxGraphModel>
  </diagram>
  <diagram id="osG95OtlP7ngKXNvpwo7" name="NodeJS Basics">
    <mxGraphModel dx="1108" dy="604" grid="1" gridSize="10" guides="1" tooltips="1" connect="1" arrows="1" fold="1" page="1" pageScale="1" pageWidth="1700" pageHeight="1100" math="0" shadow="0">
      <root>
        <mxCell id="aChh6A68RfjscqZxa_iN-0" />
        <mxCell id="aChh6A68RfjscqZxa_iN-1" parent="aChh6A68RfjscqZxa_iN-0" />
      </root>
    </mxGraphModel>
  </diagram>
  <diagram id="ZdtECT7hisko8PlE9SLI" name="ExpressJS">
    <mxGraphModel dx="2808" dy="604" grid="1" gridSize="10" guides="1" tooltips="1" connect="1" arrows="1" fold="1" page="1" pageScale="1" pageWidth="1700" pageHeight="1100" math="0" shadow="0">
      <root>
        <mxCell id="lvRlx60eKKyk-b9Lxa_9-0" />
        <mxCell id="lvRlx60eKKyk-b9Lxa_9-1" parent="lvRlx60eKKyk-b9Lxa_9-0" />
        <mxCell id="AZMQ0tH4z0fNAanR1jIV-0" value="Don&#39;t reinvented the wheel" style="text;html=1;strokeColor=none;fillColor=none;align=center;verticalAlign=middle;whiteSpace=wrap;rounded=0;fontFamily=Comfortaa;fontSource=https%3A%2F%2Ffonts.googleapis.com%2Fcss%3Ffamily%3DComfortaa;fontSize=16;" vertex="1" parent="lvRlx60eKKyk-b9Lxa_9-1">
          <mxGeometry x="90" y="250" width="280" height="30" as="geometry" />
        </mxCell>
        <mxCell id="AZMQ0tH4z0fNAanR1jIV-3" style="edgeStyle=orthogonalEdgeStyle;rounded=0;orthogonalLoop=1;jettySize=auto;html=1;entryX=0.5;entryY=0;entryDx=0;entryDy=0;fontFamily=Comfortaa;fontSource=https%3A%2F%2Ffonts.googleapis.com%2Fcss%3Ffamily%3DComfortaa;fontSize=16;" edge="1" parent="lvRlx60eKKyk-b9Lxa_9-1" source="AZMQ0tH4z0fNAanR1jIV-1" target="AZMQ0tH4z0fNAanR1jIV-2">
          <mxGeometry relative="1" as="geometry" />
        </mxCell>
        <mxCell id="AZMQ0tH4z0fNAanR1jIV-4" style="edgeStyle=orthogonalEdgeStyle;rounded=0;orthogonalLoop=1;jettySize=auto;html=1;entryX=0.5;entryY=0;entryDx=0;entryDy=0;fontFamily=Comfortaa;fontSource=https%3A%2F%2Ffonts.googleapis.com%2Fcss%3Ffamily%3DComfortaa;fontSize=16;" edge="1" parent="lvRlx60eKKyk-b9Lxa_9-1" source="AZMQ0tH4z0fNAanR1jIV-1" target="AZMQ0tH4z0fNAanR1jIV-0">
          <mxGeometry relative="1" as="geometry" />
        </mxCell>
        <mxCell id="AZMQ0tH4z0fNAanR1jIV-1" value="What is ExpressJS" style="rounded=0;whiteSpace=wrap;html=1;fontFamily=Comfortaa;fontSource=https%3A%2F%2Ffonts.googleapis.com%2Fcss%3Ffamily%3DComfortaa;fontSize=16;" vertex="1" parent="lvRlx60eKKyk-b9Lxa_9-1">
          <mxGeometry x="70" y="110" width="120" height="60" as="geometry" />
        </mxCell>
        <mxCell id="AZMQ0tH4z0fNAanR1jIV-2" value="NodeJS Framework" style="rounded=0;whiteSpace=wrap;html=1;fontFamily=Comfortaa;fontSource=https%3A%2F%2Ffonts.googleapis.com%2Fcss%3Ffamily%3DComfortaa;fontSize=16;" vertex="1" parent="lvRlx60eKKyk-b9Lxa_9-1">
          <mxGeometry x="-60" y="210" width="120" height="60" as="geometry" />
        </mxCell>
        <mxCell id="AZMQ0tH4z0fNAanR1jIV-7" style="edgeStyle=orthogonalEdgeStyle;rounded=0;orthogonalLoop=1;jettySize=auto;html=1;fontFamily=Comfortaa;fontSource=https%3A%2F%2Ffonts.googleapis.com%2Fcss%3Ffamily%3DComfortaa;fontSize=16;" edge="1" parent="lvRlx60eKKyk-b9Lxa_9-1" source="AZMQ0tH4z0fNAanR1jIV-5" target="AZMQ0tH4z0fNAanR1jIV-6">
          <mxGeometry relative="1" as="geometry" />
        </mxCell>
        <mxCell id="AZMQ0tH4z0fNAanR1jIV-5" value="Request" style="rounded=0;whiteSpace=wrap;html=1;fontFamily=Comfortaa;fontSource=https%3A%2F%2Ffonts.googleapis.com%2Fcss%3Ffamily%3DComfortaa;fontSize=16;" vertex="1" parent="lvRlx60eKKyk-b9Lxa_9-1">
          <mxGeometry x="520" y="110" width="120" height="60" as="geometry" />
        </mxCell>
        <mxCell id="AZMQ0tH4z0fNAanR1jIV-6" value="Middleware" style="rounded=0;whiteSpace=wrap;html=1;fontFamily=Comfortaa;fontSource=https%3A%2F%2Ffonts.googleapis.com%2Fcss%3Ffamily%3DComfortaa;fontSize=16;" vertex="1" parent="lvRlx60eKKyk-b9Lxa_9-1">
          <mxGeometry x="520" y="230" width="120" height="60" as="geometry" />
        </mxCell>
      </root>
    </mxGraphModel>
  </diagram>
</mxfile>
